<?xml version="1.0" encoding="utf-8"?>
<!-- Generator: Adobe Illustrator 26.0.0, SVG Export Plug-In . SVG Version: 6.00 Build 0)  -->
<svg version="1.1" id="Слой_1" xmlns="http://www.w3.org/2000/svg" xmlns:xlink="http://www.w3.org/1999/xlink" x="0px" y="0px"
	 viewBox="0 0 221.47 18.73" style="enable-background:new 0 0 221.47 18.73;" xml:space="preserve">
<style type="text/css">
	.st0{fill:#FE5000;}
</style>
<g>
	<path class="st0" d="M208.45,11.93c3.4-0.1,6.6-0.17,9.68-0.36c-2.14-0.14-4.51,0.07-6.51-0.17c1.53-0.08,3.1,0.05,4.62-0.15
		c-0.02-0.02-0.03-0.04-0.05-0.06c-1.01-0.08-2.08,0.04-3.08-0.14c0.28-0.08,0.79-0.14,1.04-0.18c0.2-0.13-0.23-0.27-1-0.29
		c-2.68-0.02-5.09-0.27-7.82-0.11c0.69-0.33,1.92-0.13,2.76-0.26c1.54-0.11,2.99,0.22,4.6,0.02c0.01-0.01,0.02-0.03,0.03-0.04
		c-6.62-0.24-13.22-0.07-19.84-0.29c0-0.02,0-0.04,0-0.06c1.4-0.1,2.82,0.06,4.21-0.09c-3.99-0.29-8.05,0-12.05-0.17
		c0-0.02,0.01-0.04,0.01-0.06c1.56-0.1,3.25,0,4.83-0.09c-0.91-0.25-2.91-0.14-4.07-0.11c-5.95,0.01-11.94,0.07-17.86-0.09
		c0.01-0.02,0.02-0.04,0.04-0.05c11.87-0.3,23.68,0.18,35.55,0.02c-2.51-0.15-5.13,0.04-7.62-0.1c0.18-0.07,0.33-0.13,0.47-0.18
		c-1.33-0.07-2.67,0.04-4.01-0.04c-0.01-0.01-0.01-0.03-0.02-0.04c0.51-0.02,1.02-0.04,1.59-0.06c-1.29-0.13-2.56-0.11-3.89-0.09
		c-1.45-0.07-2.95-0.19-4.48-0.21c1.05-0.19,2.13-0.04,3.2-0.09c0.33,0.03,0.96,0.15,1.25,0.11c0.85-0.28,2.45,0.07,3.38-0.22
		c-2.12-0.14-5.45,0.12-7.29-0.22c0.94-0.02,1.83-0.04,2.72-0.06c-3.24-0.19-6.19-0.37-9.47-0.44c0.01-0.02,0.03-0.03,0.04-0.05
		c1.43-0.14,3.12-0.01,4.75-0.15c-13.61-0.94-27.27-0.64-40.92-0.74C127.56,6.18,111.9,6.5,96.25,6.4c0,0,0,0,0,0
		c-0.37-0.05-0.73-0.1-1.12-0.01c0,0,0.01,0.01,0.01,0.01c-1.16-0.01-2.33-0.01-3.49-0.03c-0.02,0.01-0.05,0.02-0.07,0.03
		c0.09,0.03,0.17,0.05,0.27,0.08c-1.42,0.07-2.51,0.06-3.09-0.03c0.74-0.01,1.37-0.02,2.01-0.03c-0.01-0.02-0.01-0.03-0.02-0.05
		c-9.77-0.06-19.48,0.04-29.24-0.02c0.75,0.13,1.55-0.03,2.26,0.2C49.2,7.24,34.5,6.27,19.96,7.31c3.85,0.22,7.77-0.17,11.61,0.2
		c-2.83,0.31-6.34-0.18-9.03,0.36c0.16,0.02,0.33,0.04,0.51,0.06C23.02,7.95,23,7.96,22.98,7.98c-0.81,0.06-2.12,0.04-2.8,0.21
		c-1.28,0.33-3.84-0.04-5.34,0.21c-0.7,0.11-0.09,0.19,0.28,0.24c0.09,0.01,0.28,0,0.42,0c0.59,0.01,0.71,0.04,0.46,0.15
		c-0.05,0.02-0.11,0.05-0.21,0.09c2.6,0,5.11-0.03,7.56,0.11c-2.72,0.11-5.51,0.08-8.35,0.11c1.71,0.02,2.17,0.37,3.98,0.33
		c0.3-0.02,0.62,0.03,0.88,0.11c-0.47,0.1-0.97,0.1-1.47,0.13c0.02,0.02,0.04,0.04,0.05,0.06c0.95,0.05,2.04-0.12,2.96,0.07
		c-1.17,0.44-3.23,0.05-4.56,0.31c0.87,0.08,1.77-0.01,2.52,0.18c-2.85,0.41-5.96,0.12-8.9,0.4c1.74,0.33,3.58,0.14,5.42,0.3
		c-0.57,0.11-1.17,0.09-1.76,0.1c0.84,0.17,2.05,0.01,2.91,0.17c-4.2-0.02-8.3,0.08-12.41,0.31c1.37,0.26-0.52,0.24-0.89,0.39
		c2.07,0.06,4.04,0.11,6.06,0.17c-0.21,0.04-0.48,0.07-0.48,0.1c0.02,0.29-1.71,0.12-2.1,0.35c1.16,0.25,2.57-0.03,3.76,0.04
		c3.51,0.11,7.01,0.17,10.52,0.3c-0.01,0.01-0.02,0.02-0.03,0.04c-5.29,0.13-10.55-0.02-15.84,0.27c4.23,0.28,8.35,0.01,12.57,0
		c0.3,0.01,0.83-0.04,1.02,0.11c-0.63,0.19-1.49,0.24-2.4,0.27c15.55,0.73,31.17,0.61,46.7,0.67c-0.04,0.01-0.07,0.03-0.11,0.04
		c0.14,0.04,0.28,0.09,0.41,0.13c0.24-0.04,0.48-0.08,0.79-0.13c0.35,0.19,1.28,0.21,2.24,0.21c2.69,0.01,5.38,0.01,8.07,0.02
		c6.52-0.01,13.05,0.14,19.57,0.01c3.02-0.12,6.13,0.01,9.17,0.14c4.57-0.06,9.18-0.07,13.76-0.01c7.06-0.26,14.13,0,21.18-0.11
		c-0.68-0.01-1.15-0.02-1.63-0.02c0-0.01,0.01-0.03,0.01-0.04c18.79-0.25,37.6-0.02,56.39-0.34c-0.01-0.02-0.01-0.03-0.02-0.05
		c-1.59-0.04-3.48,0.05-5.01-0.1c-4.2-0.16-8.65,0.23-12.83-0.16c10.15-0.04,20.2-0.32,30.34-0.36c-0.01-0.01-0.02-0.03-0.03-0.04
		c-1.16-0.04-2.41,0.05-3.54-0.08c1.4-0.01,2.77-0.28,4.16-0.11c1.28,0.17,1.94-0.13,3.46,0.13c-0.35-0.34-0.28-0.38-0.94-0.34
		c-5.47,0.07-10.92,0.14-16.4-0.16c4.03-0.16,7.95,0,11.99-0.04c-0.64-0.17-0.6-0.2,0.28-0.23c4.1-0.05,8.17-0.14,12.25-0.38
		c-0.2-0.05-0.33-0.08-0.47-0.11c0.2-0.03,0.36-0.06,0.65-0.11C214.27,11.88,211.44,12.15,208.45,11.93z M212.78,11.03
		c0,0.01,0,0.03,0,0.04c-0.38,0.07-0.74,0.06-1.11-0.02C212.04,10.93,212.41,11,212.78,11.03z M209.42,11.38
		c0.37,0.01,0.74,0.01,1.11,0.02c-0.01,0.02-0.02,0.05-0.03,0.07c-0.37,0-0.74-0.01-1.12-0.01
		C209.4,11.43,209.41,11.41,209.42,11.38z M19.55,13.39c0.65-0.03,1.13-0.06,1.62-0.09C20.71,13.47,20.31,13.49,19.55,13.39z
		 M136.11,14.5c-0.39,0.05-0.79,0.01-1.18,0c0.16-0.14,1.05-0.04,1.31-0.04C136.2,14.47,136.16,14.48,136.11,14.5z M164.84,14.02
		c0.67-0.07,1.32-0.08,1.97,0C166.15,14.08,165.5,14.09,164.84,14.02z M182.15,9.56c0-0.01,0-0.03,0-0.04
		c0.75-0.07,1.51-0.01,2.27,0c0,0.01,0,0.03,0,0.04C183.66,9.56,182.91,9.56,182.15,9.56z M200.79,13.32
		c-0.24,0.11-0.61,0.12-1.25,0C199.95,13.32,200.36,13.32,200.79,13.32z M191.64,9.87c-0.59,0-1.18,0-1.77,0
		c0-0.02,0.01-0.04,0.01-0.06c0.59,0.01,1.18,0.01,1.77,0.02C191.64,9.84,191.64,9.86,191.64,9.87z"/>
	<path class="st0" d="M48.53,6.33c0.44,0.01,1.1-0.02,1.06,0.13c1.16,0.13,2.44-0.1,3.58-0.2c-2.25,0.01-4.65-0.13-6.92-0.01
		c0.02,0.02,0.03,0.03,0.05,0.05C47.03,6.34,47.79,6.31,48.53,6.33z"/>
	<path class="st0" d="M198.62,9.81c1.54,0.01,2.98,0.04,4.51,0.04c0.02-0.02,0.03-0.03,0.05-0.05c-1.54-0.11-3.19-0.16-4.73-0.08
		C198.43,9.75,198.53,9.81,198.62,9.81z"/>
	<path class="st0" d="M59.58,6.4c-0.97-0.19-2.31-0.08-3.01,0.12C57.61,6.46,58.68,6.58,59.58,6.4z"/>
	<path class="st0" d="M201.77,9.39c-1.07,0.04-2.17,0-3.22,0.09c-0.04,0.02-0.13,0.05-0.08,0.07c1.09,0.06,2.24-0.08,3.34-0.1
		C201.8,9.44,201.78,9.42,201.77,9.39z"/>
	<path class="st0" d="M45.77,6.18c-1.31-0.02-2.48-0.03-3.65-0.04C42.61,6.29,45,6.3,45.77,6.18z"/>
	<path class="st0" d="M67.38,6.1c0.01-0.01,0.02-0.03,0.03-0.04c-0.78-0.01-1.57-0.11-2.35,0C65.82,6.19,66.6,6.09,67.38,6.1z"/>
	<path class="st0" d="M69.96,6.06c-0.6-0.12-1.2-0.01-1.81-0.01c0.01,0.03,0.03,0.05,0.04,0.08C68.78,6.1,69.39,6.21,69.96,6.06z"/>
	<path class="st0" d="M208.82,12.84c-0.68-0.1-1.13-0.07-1.39,0.09C207.89,12.9,208.35,12.87,208.82,12.84z"/>
	<path class="st0" d="M114.02,6.35c0.72-0.01,1.32-0.01,1.92-0.02C114.87,6.23,114.48,6.23,114.02,6.35z"/>
	<path class="st0" d="M204.34,9.5c-0.64,0-1.27,0-1.91,0c0,0.01,0,0.02-0.01,0.04c0.64,0,1.27,0,1.91,0
		C204.33,9.52,204.34,9.51,204.34,9.5z"/>
	<path class="st0" d="M212.4,12.84c0.56,0,1.12,0,1.69,0c0.01-0.02,0.01-0.05,0.02-0.07c-0.57,0.01-1.14,0.01-1.71,0.02
		C212.4,12.81,212.4,12.82,212.4,12.84z"/>
	<path class="st0" d="M206.37,9.79c-0.01-0.01-0.01-0.03-0.02-0.04c-0.53,0-1.06,0.01-1.58,0.01c0,0.02,0.01,0.03,0.01,0.05
		C205.37,9.91,205.84,9.79,206.37,9.79z"/>
	<path class="st0" d="M199.29,8.88c-0.01-0.01-0.02-0.03-0.03-0.04c-0.68,0.01-1.36,0.03-2.04,0.04c0.01,0.02,0.03,0.04,0.04,0.06
		C197.94,8.93,198.62,8.9,199.29,8.88z"/>
	<path class="st0" d="M139.82,14.56c0,0.01-0.01,0.03-0.01,0.04c0.53,0.01,1.06,0.02,1.59,0.03c0.01-0.02,0.01-0.04,0.02-0.06
		C140.9,14.53,140.36,14.56,139.82,14.56z"/>
	<path class="st0" d="M191.25,9.41c0.01,0.02,0.02,0.04,0.03,0.05c0.4-0.01,0.79-0.02,1.19-0.02c-0.01-0.01-0.02-0.03-0.02-0.04
		C192.03,9.35,191.62,9.33,191.25,9.41z"/>
	<path class="st0" d="M4.12,12.41c0.4,0.08,0.5,0.08,1.03,0.03C4.66,12.38,4.53,12.33,4.12,12.41z"/>
</g>
</svg>
