<?xml version="1.0" encoding="utf-8"?>
<!-- Generator: Adobe Illustrator 26.0.0, SVG Export Plug-In . SVG Version: 6.00 Build 0)  -->
<svg version="1.1" xmlns="http://www.w3.org/2000/svg" xmlns:xlink="http://www.w3.org/1999/xlink" x="0px" y="0px"
	 viewBox="0 0 164 66" style="enable-background:new 0 0 164 66;" xml:space="preserve">
<style type="text/css">
	.st0{display:none;}
	.st1{display:inline;}
	.st2{fill:#676767;}
	.st3{fill:#FC6E3C;}
	.st4{fill:#FE5000;}
	.st5{fill:#FE5000;stroke:#FE5000;stroke-width:0.5;stroke-miterlimit:10;}
</style>
<g id="Слой_1" class="st0">
	<g class="st1">
		<g>
			<path class="st2" d="M4.45,64.37v0.6H2v-3.54h2.4v0.6H2.69v0.85h1.49v0.56H2.69v0.92H4.45z"/>
			<path class="st2" d="M11.86,63.91v-0.6h1.5v0.6H11.86z"/>
			<path class="st2" d="M23.81,64.06c0,0.2-0.05,0.37-0.15,0.5c-0.1,0.13-0.24,0.24-0.41,0.31c-0.17,0.07-0.36,0.11-0.57,0.11h-1.7
				v-3.54h1.89c0.17,0,0.31,0.04,0.43,0.13c0.12,0.09,0.21,0.2,0.28,0.34c0.06,0.14,0.1,0.28,0.1,0.43c0,0.17-0.04,0.33-0.13,0.48
				c-0.09,0.15-0.21,0.27-0.38,0.34c0.2,0.06,0.36,0.17,0.48,0.32C23.75,63.64,23.81,63.83,23.81,64.06z M21.65,62.02v0.89h0.91
				c0.08,0,0.15-0.02,0.21-0.05c0.06-0.04,0.11-0.09,0.15-0.15c0.04-0.07,0.06-0.15,0.06-0.24c0-0.09-0.02-0.17-0.05-0.23
				c-0.03-0.07-0.08-0.12-0.14-0.15c-0.06-0.04-0.12-0.05-0.2-0.05H21.65z M23.12,63.93c0-0.09-0.02-0.17-0.05-0.24
				c-0.04-0.07-0.09-0.13-0.15-0.17c-0.06-0.04-0.13-0.06-0.21-0.06h-1.05v0.93h1.02c0.08,0,0.16-0.02,0.23-0.06
				c0.07-0.04,0.12-0.1,0.16-0.17C23.1,64.09,23.12,64.01,23.12,63.93z"/>
			<path class="st2" d="M32.8,65c-0.26,0-0.49-0.05-0.7-0.15c-0.21-0.1-0.39-0.23-0.54-0.41c-0.15-0.17-0.27-0.36-0.35-0.58
				c-0.08-0.21-0.12-0.43-0.12-0.66c0-0.24,0.04-0.46,0.13-0.68c0.09-0.22,0.21-0.41,0.36-0.57c0.15-0.17,0.34-0.3,0.55-0.4
				c0.21-0.1,0.44-0.15,0.69-0.15c0.26,0,0.49,0.05,0.7,0.15c0.21,0.1,0.39,0.24,0.54,0.41c0.15,0.17,0.26,0.37,0.35,0.58
				c0.08,0.21,0.12,0.43,0.12,0.66c0,0.23-0.04,0.46-0.13,0.67c-0.09,0.21-0.21,0.41-0.36,0.57c-0.15,0.17-0.34,0.3-0.55,0.4
				C33.28,64.95,33.05,65,32.8,65z M31.78,63.2c0,0.15,0.02,0.3,0.07,0.44c0.05,0.14,0.11,0.27,0.2,0.38
				c0.09,0.11,0.2,0.2,0.32,0.26c0.13,0.07,0.27,0.1,0.43,0.1c0.17,0,0.31-0.03,0.44-0.1c0.13-0.07,0.24-0.16,0.32-0.27
				c0.09-0.11,0.15-0.24,0.2-0.38c0.04-0.14,0.07-0.28,0.07-0.43c0-0.15-0.02-0.3-0.07-0.44c-0.05-0.14-0.12-0.27-0.2-0.38
				c-0.09-0.11-0.2-0.2-0.32-0.26c-0.13-0.07-0.27-0.1-0.43-0.1c-0.17,0-0.32,0.03-0.44,0.1s-0.23,0.16-0.32,0.27
				c-0.09,0.11-0.15,0.24-0.2,0.38C31.8,62.91,31.78,63.06,31.78,63.2z"/>
			<path class="st2" d="M43.51,65c-0.26,0-0.49-0.05-0.7-0.15c-0.21-0.1-0.39-0.23-0.54-0.41c-0.15-0.17-0.27-0.36-0.35-0.58
				c-0.08-0.21-0.12-0.43-0.12-0.66c0-0.24,0.04-0.46,0.13-0.68c0.09-0.22,0.21-0.41,0.36-0.57c0.15-0.17,0.34-0.3,0.55-0.4
				c0.21-0.1,0.44-0.15,0.69-0.15c0.26,0,0.49,0.05,0.7,0.15c0.21,0.1,0.39,0.24,0.54,0.41c0.15,0.17,0.26,0.37,0.35,0.58
				c0.08,0.21,0.12,0.43,0.12,0.66c0,0.23-0.04,0.46-0.13,0.67c-0.09,0.21-0.21,0.41-0.36,0.57c-0.15,0.17-0.34,0.3-0.55,0.4
				C43.98,64.95,43.76,65,43.51,65z M42.48,63.2c0,0.15,0.02,0.3,0.07,0.44c0.05,0.14,0.11,0.27,0.2,0.38
				c0.09,0.11,0.2,0.2,0.32,0.26c0.13,0.07,0.27,0.1,0.43,0.1c0.17,0,0.31-0.03,0.44-0.1c0.13-0.07,0.24-0.16,0.32-0.27
				c0.09-0.11,0.15-0.24,0.2-0.38c0.04-0.14,0.07-0.28,0.07-0.43c0-0.15-0.02-0.3-0.07-0.44c-0.05-0.14-0.12-0.27-0.2-0.38
				c-0.09-0.11-0.2-0.2-0.32-0.26c-0.13-0.07-0.27-0.1-0.43-0.1c-0.17,0-0.32,0.03-0.44,0.1c-0.13,0.07-0.23,0.16-0.32,0.27
				c-0.09,0.11-0.15,0.24-0.2,0.38C42.51,62.91,42.48,63.06,42.48,63.2z"/>
			<path class="st2" d="M52.71,64.97v-3.54h0.69v1.68l1.48-1.69h0.76L54.28,63l1.44,1.97h-0.77l-1.1-1.53l-0.45,0.47v1.06H52.71z"/>
		</g>
		<path class="st2" d="M73.08,65c-0.26,0-0.49-0.05-0.7-0.15c-0.21-0.1-0.39-0.23-0.54-0.41c-0.15-0.17-0.27-0.36-0.35-0.58
			c-0.08-0.21-0.12-0.43-0.12-0.66c0-0.24,0.04-0.46,0.13-0.68c0.09-0.22,0.21-0.41,0.36-0.57c0.15-0.17,0.34-0.3,0.55-0.4
			c0.21-0.1,0.44-0.15,0.69-0.15c0.26,0,0.49,0.05,0.7,0.15c0.21,0.1,0.39,0.24,0.54,0.41c0.15,0.17,0.26,0.37,0.35,0.58
			c0.08,0.21,0.12,0.43,0.12,0.66c0,0.23-0.04,0.46-0.13,0.67c-0.09,0.21-0.21,0.41-0.36,0.57c-0.15,0.17-0.34,0.3-0.55,0.4
			C73.56,64.95,73.33,65,73.08,65z M72.06,63.2c0,0.15,0.02,0.3,0.07,0.44c0.05,0.14,0.11,0.27,0.2,0.38
			c0.09,0.11,0.2,0.2,0.32,0.26c0.13,0.07,0.27,0.1,0.43,0.1c0.17,0,0.31-0.03,0.44-0.1c0.13-0.07,0.24-0.16,0.32-0.27
			c0.09-0.11,0.15-0.24,0.2-0.38c0.04-0.14,0.07-0.28,0.07-0.43c0-0.15-0.02-0.3-0.07-0.44c-0.05-0.14-0.12-0.27-0.2-0.38
			c-0.09-0.11-0.2-0.2-0.32-0.26c-0.13-0.07-0.27-0.1-0.43-0.1c-0.17,0-0.32,0.03-0.44,0.1c-0.13,0.07-0.23,0.16-0.32,0.27
			c-0.09,0.11-0.15,0.24-0.2,0.38C72.08,62.91,72.06,63.06,72.06,63.2z"/>
		<path class="st2" d="M82.29,64.97v-3.54h2.37v0.6h-1.68v0.91h1.4v0.56h-1.4v1.47H82.29z"/>
		<g>
			<path class="st2" d="M100.63,64.97v-3.54h1.56c0.16,0,0.31,0.03,0.45,0.1c0.14,0.07,0.26,0.16,0.36,0.27s0.18,0.24,0.23,0.38
				c0.05,0.14,0.08,0.28,0.08,0.43c0,0.15-0.03,0.29-0.08,0.43s-0.13,0.26-0.22,0.36c-0.1,0.1-0.21,0.18-0.34,0.24l0.8,1.33h-0.75
				L102,63.79h-0.69v1.19H100.63z M101.31,63.18h0.86c0.09,0,0.16-0.03,0.23-0.08c0.07-0.05,0.12-0.12,0.16-0.21
				c0.04-0.09,0.06-0.18,0.06-0.29c0-0.11-0.02-0.21-0.07-0.3c-0.05-0.08-0.1-0.15-0.18-0.2c-0.07-0.05-0.15-0.08-0.23-0.08h-0.83
				V63.18z"/>
			<path class="st2" d="M113.33,64.37v0.6h-2.45v-3.54h2.4v0.6h-1.72v0.85h1.49v0.56h-1.49v0.92H113.33z"/>
			<path class="st2" d="M120.54,63.17c0-0.22,0.04-0.43,0.12-0.64s0.19-0.4,0.34-0.57c0.15-0.17,0.33-0.31,0.55-0.41
				c0.22-0.1,0.46-0.15,0.74-0.15c0.32,0,0.6,0.07,0.84,0.21c0.24,0.14,0.41,0.33,0.53,0.56l-0.53,0.36
				c-0.06-0.13-0.14-0.24-0.23-0.32c-0.1-0.08-0.2-0.13-0.31-0.16c-0.11-0.03-0.22-0.05-0.32-0.05c-0.17,0-0.32,0.04-0.45,0.1
				c-0.13,0.07-0.23,0.16-0.32,0.27c-0.09,0.11-0.15,0.24-0.19,0.38c-0.04,0.14-0.06,0.28-0.06,0.42c0,0.16,0.02,0.31,0.07,0.45
				c0.05,0.14,0.12,0.27,0.21,0.38c0.09,0.11,0.2,0.2,0.33,0.26c0.13,0.07,0.27,0.1,0.42,0.1c0.11,0,0.22-0.02,0.33-0.05
				c0.11-0.04,0.22-0.1,0.31-0.18c0.1-0.08,0.17-0.18,0.22-0.31l0.56,0.32c-0.07,0.18-0.18,0.33-0.34,0.45
				c-0.16,0.12-0.33,0.22-0.53,0.28c-0.19,0.06-0.39,0.1-0.58,0.1c-0.25,0-0.48-0.05-0.69-0.16c-0.21-0.1-0.39-0.24-0.54-0.42
				c-0.15-0.17-0.27-0.37-0.35-0.59C120.58,63.62,120.54,63.4,120.54,63.17z"/>
			<path class="st2" d="M131.11,64.97v-3.54h0.68v3.54H131.11z"/>
			<path class="st2" d="M139.49,64.97v-3.54h1.49c0.16,0,0.31,0.03,0.45,0.1c0.14,0.07,0.25,0.16,0.35,0.27s0.18,0.24,0.24,0.38
				c0.06,0.14,0.08,0.28,0.08,0.43c0,0.2-0.05,0.39-0.14,0.57c-0.09,0.18-0.22,0.33-0.38,0.44c-0.16,0.11-0.36,0.17-0.58,0.17h-0.84
				v1.19H139.49z M140.17,63.18h0.8c0.08,0,0.16-0.02,0.22-0.07c0.07-0.05,0.12-0.11,0.16-0.2c0.04-0.09,0.06-0.19,0.06-0.3
				c0-0.12-0.02-0.23-0.07-0.31c-0.04-0.09-0.1-0.15-0.17-0.19c-0.07-0.04-0.15-0.07-0.23-0.07h-0.77V63.18z"/>
			<path class="st2" d="M151.98,64.37v0.6h-2.45v-3.54h2.4v0.6h-1.72v0.85h1.49v0.56h-1.49v0.92H151.98z"/>
			<path class="st2" d="M161.57,62.36c-0.02-0.02-0.07-0.05-0.13-0.09c-0.06-0.04-0.14-0.08-0.22-0.12
				c-0.09-0.04-0.18-0.07-0.29-0.1c-0.1-0.03-0.21-0.04-0.31-0.04c-0.19,0-0.33,0.03-0.42,0.1c-0.09,0.07-0.14,0.17-0.14,0.29
				c0,0.1,0.03,0.17,0.09,0.23c0.06,0.06,0.15,0.1,0.27,0.14c0.12,0.04,0.27,0.08,0.45,0.13c0.23,0.06,0.43,0.12,0.6,0.21
				c0.17,0.08,0.3,0.19,0.39,0.32c0.09,0.13,0.14,0.3,0.14,0.52c0,0.19-0.03,0.35-0.1,0.48c-0.07,0.13-0.16,0.24-0.29,0.33
				c-0.12,0.08-0.26,0.14-0.42,0.18c-0.16,0.04-0.32,0.06-0.5,0.06c-0.18,0-0.35-0.02-0.53-0.06c-0.18-0.04-0.34-0.09-0.51-0.16
				c-0.16-0.07-0.31-0.15-0.45-0.25l0.3-0.59c0.03,0.03,0.08,0.07,0.16,0.12c0.08,0.05,0.17,0.1,0.28,0.14
				c0.11,0.05,0.23,0.09,0.36,0.12c0.13,0.03,0.26,0.05,0.39,0.05c0.19,0,0.33-0.03,0.42-0.09c0.1-0.06,0.14-0.15,0.14-0.27
				c0-0.11-0.04-0.19-0.11-0.25c-0.08-0.06-0.18-0.11-0.32-0.16s-0.3-0.09-0.48-0.15c-0.22-0.06-0.41-0.13-0.56-0.21
				c-0.15-0.08-0.26-0.18-0.33-0.3c-0.07-0.12-0.11-0.27-0.11-0.45c0-0.24,0.06-0.44,0.17-0.61c0.11-0.16,0.27-0.29,0.46-0.37
				c0.2-0.08,0.41-0.13,0.65-0.13c0.17,0,0.32,0.02,0.47,0.06c0.15,0.04,0.29,0.08,0.42,0.14c0.13,0.06,0.24,0.12,0.35,0.19
				L161.57,62.36z"/>
		</g>
	</g>
	<g class="st1">
		<path d="M6.45,53.19c0.42,0,0.77-0.03,1.05-0.1c0.27-0.07,0.5-0.15,0.66-0.27c0.17-0.11,0.28-0.25,0.34-0.4
			c0.06-0.16,0.1-0.33,0.1-0.52c0-0.41-0.2-0.74-0.61-1.01c-0.41-0.27-1.11-0.56-2.11-0.87c-0.44-0.14-0.87-0.31-1.3-0.49
			c-0.43-0.19-0.82-0.42-1.17-0.7c-0.35-0.28-0.63-0.62-0.84-1.02c-0.22-0.4-0.33-0.89-0.33-1.46c0-0.58,0.11-1.09,0.35-1.55
			s0.56-0.85,0.98-1.18c0.42-0.32,0.93-0.57,1.53-0.75c0.6-0.17,1.28-0.26,2.03-0.26c0.89,0,1.67,0.09,2.32,0.27
			c0.65,0.18,1.19,0.38,1.61,0.59l-0.86,2.21c-0.37-0.18-0.78-0.34-1.24-0.48c-0.45-0.14-1-0.21-1.64-0.21
			c-0.72,0-1.23,0.09-1.54,0.28S5.3,45.73,5.3,46.11c0,0.23,0.06,0.42,0.17,0.58c0.12,0.16,0.28,0.3,0.49,0.42
			c0.21,0.13,0.45,0.24,0.73,0.34c0.27,0.1,0.58,0.21,0.91,0.31c0.69,0.24,1.29,0.48,1.8,0.71c0.51,0.23,0.94,0.51,1.28,0.82
			c0.34,0.31,0.59,0.68,0.76,1.1c0.17,0.42,0.25,0.93,0.25,1.53c0,1.16-0.44,2.06-1.3,2.7c-0.87,0.64-2.18,0.96-3.93,0.96
			c-0.59,0-1.12-0.03-1.59-0.1c-0.47-0.07-0.89-0.15-1.26-0.24s-0.68-0.2-0.94-0.31C2.4,54.82,2.18,54.72,2,54.63l0.84-2.23
			c0.4,0.2,0.89,0.39,1.47,0.55S5.61,53.19,6.45,53.19z"/>
		<path d="M28.57,49.09c0,1.07-0.17,2-0.51,2.81c-0.34,0.81-0.8,1.49-1.39,2.03c-0.59,0.54-1.29,0.96-2.1,1.23
			c-0.81,0.28-1.69,0.41-2.62,0.41c-0.91,0-1.76-0.14-2.57-0.41c-0.81-0.27-1.51-0.69-2.11-1.23c-0.6-0.54-1.07-1.22-1.42-2.03
			c-0.34-0.81-0.52-1.75-0.52-2.81c0-1.07,0.18-2,0.54-2.81c0.36-0.81,0.84-1.49,1.45-2.04c0.61-0.55,1.31-0.96,2.11-1.24
			c0.8-0.28,1.64-0.41,2.52-0.41c0.91,0,1.76,0.14,2.57,0.41c0.81,0.27,1.51,0.69,2.11,1.24c0.6,0.55,1.07,1.23,1.42,2.04
			C28.39,47.09,28.57,48.03,28.57,49.09z M18.42,49.09c0,0.61,0.08,1.16,0.24,1.65c0.16,0.49,0.39,0.91,0.69,1.27
			c0.3,0.35,0.67,0.63,1.1,0.82c0.43,0.19,0.93,0.29,1.5,0.29c0.55,0,1.05-0.1,1.49-0.29c0.44-0.19,0.81-0.46,1.11-0.82
			c0.3-0.35,0.53-0.77,0.69-1.27c0.16-0.49,0.24-1.04,0.24-1.65s-0.08-1.16-0.24-1.66c-0.16-0.5-0.39-0.92-0.69-1.28
			c-0.3-0.35-0.67-0.62-1.11-0.82c-0.44-0.19-0.94-0.29-1.49-0.29c-0.56,0-1.06,0.1-1.5,0.3c-0.44,0.2-0.8,0.47-1.1,0.83
			c-0.3,0.35-0.53,0.78-0.69,1.28C18.5,47.95,18.42,48.5,18.42,49.09z"/>
		<path d="M36.97,42.73c1.98,0,3.5,0.33,4.57,0.98c1.06,0.65,1.59,1.72,1.59,3.21c0,1.5-0.54,2.58-1.61,3.24
			c-1.07,0.66-2.61,1-4.6,1h-0.94v4.17h-2.99V43.06c0.65-0.12,1.34-0.2,2.07-0.25C35.78,42.76,36.42,42.73,36.97,42.73z
			 M37.16,45.12c-0.22,0-0.43,0.01-0.64,0.02c-0.21,0.01-0.39,0.02-0.55,0.04v3.59h0.94c1.04,0,1.82-0.13,2.34-0.39
			c0.52-0.26,0.79-0.75,0.79-1.47c0-0.35-0.07-0.63-0.2-0.86c-0.13-0.23-0.33-0.41-0.58-0.55c-0.25-0.14-0.55-0.23-0.91-0.29
			C37.99,45.15,37.6,45.12,37.16,45.12z"/>
		<path d="M55.27,42.88h2.99v12.45h-2.99v-5.28h-5.03v5.28h-2.99V42.88h2.99v4.76h5.03V42.88z"/>
		<path d="M63.25,42.88h2.99v12.45h-2.99V42.88z"/>
		<path d="M80.15,55.33C80,54.89,79.84,54.45,79.67,54c-0.17-0.46-0.34-0.91-0.51-1.36h-5.19c-0.17,0.45-0.34,0.91-0.5,1.37
			c-0.17,0.46-0.33,0.9-0.47,1.33h-3.11c0.5-1.34,0.97-2.58,1.42-3.72c0.45-1.14,0.89-2.21,1.32-3.22s0.85-1.96,1.27-2.87
			c0.42-0.9,0.85-1.79,1.3-2.65h2.84c0.44,0.86,0.87,1.75,1.29,2.65c0.42,0.9,0.85,1.86,1.28,2.87s0.87,2.08,1.32,3.22
			c0.45,1.14,0.93,2.38,1.43,3.72H80.15z M76.55,45.7c-0.07,0.18-0.16,0.43-0.29,0.74c-0.13,0.31-0.27,0.67-0.44,1.08
			c-0.16,0.41-0.35,0.86-0.55,1.35s-0.41,1-0.62,1.54h3.8c-0.2-0.54-0.4-1.06-0.59-1.55c-0.19-0.49-0.37-0.94-0.54-1.35
			c-0.17-0.41-0.32-0.77-0.45-1.08C76.73,46.12,76.63,45.88,76.55,45.7z"/>
		<path d="M99.56,55.58c-2.16,0-3.81-0.56-4.94-1.69c-1.13-1.12-1.7-2.72-1.7-4.8c0-1.03,0.17-1.95,0.52-2.76
			c0.35-0.81,0.82-1.49,1.42-2.05c0.6-0.56,1.32-0.98,2.15-1.27s1.73-0.43,2.71-0.43c0.56,0,1.07,0.04,1.53,0.12
			c0.46,0.08,0.86,0.17,1.21,0.27c0.35,0.1,0.63,0.21,0.86,0.31c0.23,0.11,0.4,0.19,0.5,0.25l-0.86,2.26
			c-0.41-0.2-0.89-0.38-1.43-0.52c-0.54-0.14-1.16-0.22-1.85-0.22c-0.46,0-0.91,0.07-1.35,0.22c-0.44,0.14-0.83,0.37-1.17,0.69
			c-0.34,0.32-0.61,0.73-0.82,1.23c-0.2,0.5-0.31,1.11-0.31,1.83c0,0.58,0.07,1.11,0.2,1.61c0.13,0.5,0.35,0.93,0.65,1.28
			c0.3,0.36,0.69,0.64,1.18,0.85s1.07,0.31,1.76,0.31c0.43,0,0.83-0.02,1.17-0.07c0.35-0.05,0.65-0.11,0.92-0.17
			c0.27-0.07,0.51-0.14,0.71-0.23c0.2-0.08,0.39-0.16,0.56-0.23l0.83,2.25c-0.42,0.24-1.02,0.46-1.78,0.65
			C101.46,55.48,100.57,55.58,99.56,55.58z"/>
		<path class="st3" d="M112.97,55.42c-0.92,0-1.75-0.18-2.5-0.53c-0.75-0.36-1.39-0.84-1.93-1.45c-0.54-0.61-0.95-1.3-1.25-2.06
			c-0.29-0.76-0.44-1.55-0.44-2.35c0-0.84,0.16-1.64,0.47-2.41c0.31-0.76,0.74-1.44,1.29-2.04c0.55-0.6,1.19-1.07,1.94-1.42
			c0.75-0.35,1.57-0.52,2.46-0.52c0.91,0,1.73,0.18,2.48,0.55c0.75,0.37,1.39,0.86,1.92,1.47c0.53,0.62,0.94,1.3,1.24,2.06
			c0.29,0.76,0.44,1.54,0.44,2.34c0,0.83-0.15,1.62-0.46,2.39c-0.3,0.76-0.73,1.44-1.28,2.04c-0.55,0.6-1.19,1.07-1.94,1.41
			C114.67,55.24,113.85,55.42,112.97,55.42z M109.33,49.03c0,0.54,0.08,1.07,0.25,1.58c0.16,0.51,0.4,0.96,0.71,1.36
			c0.31,0.4,0.7,0.71,1.15,0.94c0.45,0.23,0.97,0.35,1.55,0.35c0.59,0,1.11-0.12,1.57-0.36c0.46-0.24,0.84-0.57,1.15-0.98
			c0.31-0.41,0.54-0.86,0.7-1.37c0.16-0.5,0.24-1.01,0.24-1.52c0-0.54-0.09-1.07-0.26-1.57c-0.17-0.5-0.41-0.95-0.72-1.35
			c-0.31-0.4-0.69-0.71-1.15-0.94c-0.45-0.23-0.96-0.35-1.53-0.35c-0.6,0-1.13,0.12-1.58,0.36c-0.45,0.24-0.83,0.57-1.14,0.97
			c-0.31,0.4-0.54,0.85-0.7,1.35C109.41,48,109.33,48.5,109.33,49.03z"/>
		<path class="st3" d="M128.09,55.42c-0.92,0-1.75-0.18-2.5-0.53c-0.75-0.36-1.39-0.84-1.93-1.45c-0.54-0.61-0.95-1.3-1.25-2.06
			c-0.29-0.76-0.44-1.55-0.44-2.35c0-0.84,0.16-1.64,0.47-2.41c0.31-0.76,0.74-1.44,1.29-2.04c0.55-0.6,1.19-1.07,1.94-1.42
			c0.75-0.35,1.57-0.52,2.46-0.52c0.91,0,1.73,0.18,2.48,0.55c0.75,0.37,1.39,0.86,1.92,1.47c0.53,0.62,0.94,1.3,1.24,2.06
			c0.29,0.76,0.44,1.54,0.44,2.34c0,0.83-0.15,1.62-0.46,2.39c-0.31,0.76-0.73,1.44-1.28,2.04s-1.2,1.07-1.94,1.41
			C129.79,55.24,128.98,55.42,128.09,55.42z M124.45,49.03c0,0.54,0.08,1.07,0.25,1.58c0.16,0.51,0.4,0.96,0.71,1.36
			c0.31,0.4,0.7,0.71,1.15,0.94c0.45,0.23,0.97,0.35,1.55,0.35c0.59,0,1.11-0.12,1.57-0.36s0.84-0.57,1.15-0.98
			c0.31-0.41,0.54-0.86,0.7-1.37c0.16-0.5,0.24-1.01,0.24-1.52c0-0.54-0.09-1.07-0.26-1.57c-0.17-0.5-0.41-0.95-0.72-1.35
			c-0.31-0.4-0.69-0.71-1.15-0.94c-0.45-0.23-0.96-0.35-1.53-0.35c-0.6,0-1.13,0.12-1.58,0.36c-0.45,0.24-0.83,0.57-1.14,0.97
			c-0.31,0.4-0.54,0.85-0.7,1.35C124.53,48,124.45,48.5,124.45,49.03z"/>
		<path d="M145.93,55.33c-0.27-0.41-0.59-0.84-0.95-1.31c-0.37-0.47-0.76-0.94-1.18-1.42c-0.42-0.48-0.86-0.94-1.33-1.38
			c-0.46-0.44-0.92-0.83-1.38-1.16v5.27h-2.99V42.88h2.99v4.68c0.77-0.76,1.55-1.55,2.34-2.37c0.79-0.83,1.53-1.59,2.2-2.3h3.55
			c-0.9,1.01-1.81,1.98-2.73,2.91c-0.92,0.93-1.88,1.87-2.89,2.81c1.06,0.83,2.09,1.82,3.08,2.96c0.99,1.14,1.94,2.4,2.85,3.77
			H145.93z"/>
		<path d="M156.76,53.19c0.42,0,0.77-0.03,1.05-0.1c0.27-0.07,0.49-0.15,0.66-0.27c0.17-0.11,0.28-0.25,0.35-0.4
			c0.06-0.16,0.1-0.33,0.1-0.52c0-0.41-0.2-0.74-0.61-1.01c-0.41-0.27-1.11-0.56-2.11-0.87c-0.43-0.14-0.87-0.31-1.3-0.49
			c-0.44-0.19-0.83-0.42-1.17-0.7c-0.35-0.28-0.63-0.62-0.84-1.02c-0.22-0.4-0.33-0.89-0.33-1.46c0-0.58,0.12-1.09,0.35-1.55
			c0.23-0.46,0.56-0.85,0.98-1.18c0.42-0.32,0.93-0.57,1.53-0.75c0.6-0.17,1.28-0.26,2.03-0.26c0.9,0,1.67,0.09,2.32,0.27
			c0.65,0.18,1.19,0.38,1.61,0.59l-0.86,2.21c-0.37-0.18-0.78-0.34-1.24-0.48c-0.45-0.14-1-0.21-1.64-0.21
			c-0.72,0-1.23,0.09-1.54,0.28c-0.31,0.19-0.47,0.47-0.47,0.85c0,0.23,0.06,0.42,0.17,0.58c0.12,0.16,0.28,0.3,0.49,0.42
			c0.21,0.13,0.45,0.24,0.73,0.34c0.27,0.1,0.58,0.21,0.91,0.31c0.69,0.24,1.29,0.48,1.8,0.71c0.51,0.23,0.94,0.51,1.28,0.82
			s0.59,0.68,0.76,1.1c0.17,0.42,0.25,0.93,0.25,1.53c0,1.16-0.44,2.06-1.3,2.7c-0.87,0.64-2.18,0.96-3.93,0.96
			c-0.59,0-1.12-0.03-1.59-0.1c-0.47-0.07-0.89-0.15-1.26-0.24c-0.36-0.1-0.68-0.2-0.94-0.31c-0.26-0.11-0.48-0.21-0.66-0.31
			l0.84-2.23c0.4,0.2,0.89,0.39,1.47,0.55C155.2,53.11,155.91,53.19,156.76,53.19z"/>
	</g>
	<g class="st1">
		<g>
			<path class="st3" d="M74.76,30.4c-0.1,0-0.15-0.08-0.15-0.24c0-0.14,0.05-0.31,0.15-0.51c0.1-0.2,0.23-0.36,0.39-0.48
				c0.16-0.1,0.32-0.21,0.49-0.32c0.17-0.11,0.33-0.21,0.49-0.29c-0.02-0.04-0.03-0.11-0.03-0.21c0-0.16,0.05-0.24,0.15-0.24
				c0.06,0,0.15,0.07,0.27,0.21c1.56-0.86,3.08-1.5,4.55-1.9v-0.09c0-0.56-0.14-1.08-0.43-1.57c-0.29-0.48-0.65-0.97-1.09-1.48
				c-0.44-0.5-0.88-1.05-1.33-1.66c-0.45-0.6-0.85-1.29-1.2-2.06c-0.35-0.77-0.58-1.68-0.67-2.73c-0.02-0.12-0.03-0.24-0.03-0.36
				c0-0.12,0-0.24,0-0.36c0-1.28,0.29-2.45,0.87-3.49c0.58-1.04,1.33-1.94,2.26-2.69c0.93-0.75,1.93-1.34,3.01-1.76
				c0.86-0.34,1.84-0.51,2.94-0.51c0.4,0,0.78,0.03,1.14,0.09c1.06,0.2,1.8,0.55,2.22,1.05c0.42,0.5,0.63,1,0.63,1.51
				c0,0.38-0.1,0.72-0.3,1.02c-0.2,0.3-0.34,0.45-0.42,0.45c-0.06,0-0.09-0.04-0.09-0.12c0-0.04,0.02-0.11,0.04-0.2
				c0.03-0.09,0.06-0.19,0.08-0.29c0.06-0.16,0.1-0.3,0.12-0.42c0.02-0.12,0.03-0.24,0.03-0.36c0-0.64-0.29-1.12-0.88-1.43
				c-0.59-0.31-1.21-0.47-1.87-0.47c-0.08,0-0.17,0-0.27,0s-0.2,0.01-0.3,0.03c-1.26,0.18-2.45,0.64-3.57,1.38s-2.06,1.71-2.83,2.91
				c-0.77,1.19-1.27,2.56-1.51,4.11c-0.02,0.14-0.03,0.28-0.04,0.42c-0.01,0.14-0.02,0.27-0.02,0.39c0,0.94,0.2,1.8,0.6,2.57
				c0.4,0.77,0.87,1.49,1.42,2.15c0.55,0.66,1.07,1.3,1.57,1.91c0.5,0.61,0.84,1.22,1.02,1.82c0.4-0.08,0.79-0.13,1.17-0.15
				c0.38-0.02,0.75-0.02,1.11,0c0.28,0.04,0.42,0.12,0.42,0.24c0,0.12-0.2,0.18-0.6,0.18c-0.28,0-0.59,0.02-0.93,0.04
				c-0.34,0.03-0.7,0.1-1.08,0.2c0.02,0.06,0.03,0.12,0.03,0.18c0,0.06,0,0.11,0,0.15c0,0.2-0.03,0.41-0.09,0.63
				c-0.26,0.8-0.73,1.39-1.41,1.78c-0.68,0.38-1.37,0.57-2.07,0.57c-0.68,0-1.25-0.14-1.71-0.42c-0.16-0.08-0.31-0.19-0.45-0.33
				c-0.26,0.14-0.52,0.3-0.79,0.48c-0.27,0.18-0.53,0.36-0.79,0.54C74.89,30.37,74.82,30.4,74.76,30.4z M78.45,29.49
				c0.58,0,1.15-0.19,1.71-0.56c0.56-0.37,0.87-0.99,0.93-1.85c-1.32,0.46-2.68,1.1-4.07,1.93C77.33,29.33,77.81,29.49,78.45,29.49z
				"/>
		</g>
		<path class="st3" d="M82,37.06c-9.89,0-17.94-8.09-17.94-18.03C64.05,9.09,72.1,1,82,1c9.89,0,17.94,8.09,17.94,18.03
			C99.94,28.97,91.89,37.06,82,37.06z M82,2c-9.35,0-16.95,7.64-16.95,17.03c0,9.39,7.6,17.03,16.95,17.03s16.95-7.64,16.95-17.03
			C98.95,9.64,91.34,2,82,2z"/>
	</g>
</g>
<g id="Слой_1__x28_копия_x29_">
	<g>
		<g>
			<path class="st2" d="M4.45,64.37v0.6H2v-3.54h2.4v0.6H2.69v0.85h1.49v0.56H2.69v0.92H4.45z"/>
			<path class="st2" d="M11.86,63.91v-0.6h1.5v0.6H11.86z"/>
			<path class="st2" d="M23.81,64.06c0,0.2-0.05,0.37-0.15,0.5c-0.1,0.13-0.24,0.24-0.41,0.31c-0.17,0.07-0.36,0.11-0.57,0.11h-1.7
				v-3.54h1.89c0.17,0,0.31,0.04,0.43,0.13c0.12,0.09,0.21,0.2,0.28,0.34c0.06,0.14,0.1,0.28,0.1,0.43c0,0.17-0.04,0.33-0.13,0.48
				c-0.09,0.15-0.21,0.27-0.38,0.34c0.2,0.06,0.36,0.17,0.48,0.32C23.75,63.64,23.81,63.83,23.81,64.06z M21.65,62.02v0.89h0.91
				c0.08,0,0.15-0.02,0.21-0.05c0.06-0.04,0.11-0.09,0.15-0.15c0.04-0.07,0.06-0.15,0.06-0.24c0-0.09-0.02-0.17-0.05-0.23
				c-0.03-0.07-0.08-0.12-0.14-0.15c-0.06-0.04-0.12-0.05-0.2-0.05H21.65z M23.12,63.93c0-0.09-0.02-0.17-0.05-0.24
				c-0.04-0.07-0.09-0.13-0.15-0.17c-0.06-0.04-0.13-0.06-0.21-0.06h-1.05v0.93h1.02c0.08,0,0.16-0.02,0.23-0.06
				c0.07-0.04,0.12-0.1,0.16-0.17C23.1,64.09,23.12,64.01,23.12,63.93z"/>
			<path class="st2" d="M32.8,65c-0.26,0-0.49-0.05-0.7-0.15c-0.21-0.1-0.39-0.23-0.54-0.41c-0.15-0.17-0.27-0.36-0.35-0.58
				c-0.08-0.21-0.12-0.43-0.12-0.66c0-0.24,0.04-0.46,0.13-0.68c0.09-0.22,0.21-0.41,0.36-0.57c0.15-0.17,0.34-0.3,0.55-0.4
				c0.21-0.1,0.44-0.15,0.69-0.15c0.26,0,0.49,0.05,0.7,0.15c0.21,0.1,0.39,0.24,0.54,0.41c0.15,0.17,0.26,0.37,0.35,0.58
				c0.08,0.21,0.12,0.43,0.12,0.66c0,0.23-0.04,0.46-0.13,0.67c-0.09,0.21-0.21,0.41-0.36,0.57c-0.15,0.17-0.34,0.3-0.55,0.4
				C33.28,64.95,33.05,65,32.8,65z M31.78,63.2c0,0.15,0.02,0.3,0.07,0.44c0.05,0.14,0.11,0.27,0.2,0.38
				c0.09,0.11,0.2,0.2,0.32,0.26c0.13,0.07,0.27,0.1,0.43,0.1c0.17,0,0.31-0.03,0.44-0.1c0.13-0.07,0.24-0.16,0.32-0.27
				c0.09-0.11,0.15-0.24,0.2-0.38c0.04-0.14,0.07-0.28,0.07-0.43c0-0.15-0.02-0.3-0.07-0.44c-0.05-0.14-0.12-0.27-0.2-0.38
				c-0.09-0.11-0.2-0.2-0.32-0.26c-0.13-0.07-0.27-0.1-0.43-0.1c-0.17,0-0.32,0.03-0.44,0.1s-0.23,0.16-0.32,0.27
				c-0.09,0.11-0.15,0.24-0.2,0.38C31.8,62.91,31.78,63.06,31.78,63.2z"/>
			<path class="st2" d="M43.51,65c-0.26,0-0.49-0.05-0.7-0.15c-0.21-0.1-0.39-0.23-0.54-0.41c-0.15-0.17-0.27-0.36-0.35-0.58
				c-0.08-0.21-0.12-0.43-0.12-0.66c0-0.24,0.04-0.46,0.13-0.68c0.09-0.22,0.21-0.41,0.36-0.57c0.15-0.17,0.34-0.3,0.55-0.4
				c0.21-0.1,0.44-0.15,0.69-0.15c0.26,0,0.49,0.05,0.7,0.15c0.21,0.1,0.39,0.24,0.54,0.41c0.15,0.17,0.26,0.37,0.35,0.58
				c0.08,0.21,0.12,0.43,0.12,0.66c0,0.23-0.04,0.46-0.13,0.67c-0.09,0.21-0.21,0.41-0.36,0.57c-0.15,0.17-0.34,0.3-0.55,0.4
				C43.98,64.95,43.76,65,43.51,65z M42.48,63.2c0,0.15,0.02,0.3,0.07,0.44c0.05,0.14,0.11,0.27,0.2,0.38
				c0.09,0.11,0.2,0.2,0.32,0.26c0.13,0.07,0.27,0.1,0.43,0.1c0.17,0,0.31-0.03,0.44-0.1c0.13-0.07,0.24-0.16,0.32-0.27
				c0.09-0.11,0.15-0.24,0.2-0.38c0.04-0.14,0.07-0.28,0.07-0.43c0-0.15-0.02-0.3-0.07-0.44c-0.05-0.14-0.12-0.27-0.2-0.38
				c-0.09-0.11-0.2-0.2-0.32-0.26c-0.13-0.07-0.27-0.1-0.43-0.1c-0.17,0-0.32,0.03-0.44,0.1c-0.13,0.07-0.23,0.16-0.32,0.27
				c-0.09,0.11-0.15,0.24-0.2,0.38C42.51,62.91,42.48,63.06,42.48,63.2z"/>
			<path class="st2" d="M52.71,64.97v-3.54h0.69v1.68l1.48-1.69h0.76L54.28,63l1.44,1.97h-0.77l-1.1-1.53l-0.45,0.47v1.06H52.71z"/>
		</g>
		<path class="st2" d="M73.08,65c-0.26,0-0.49-0.05-0.7-0.15c-0.21-0.1-0.39-0.23-0.54-0.41c-0.15-0.17-0.27-0.36-0.35-0.58
			c-0.08-0.21-0.12-0.43-0.12-0.66c0-0.24,0.04-0.46,0.13-0.68c0.09-0.22,0.21-0.41,0.36-0.57c0.15-0.17,0.34-0.3,0.55-0.4
			c0.21-0.1,0.44-0.15,0.69-0.15c0.26,0,0.49,0.05,0.7,0.15c0.21,0.1,0.39,0.24,0.54,0.41c0.15,0.17,0.26,0.37,0.35,0.58
			c0.08,0.21,0.12,0.43,0.12,0.66c0,0.23-0.04,0.46-0.13,0.67c-0.09,0.21-0.21,0.41-0.36,0.57c-0.15,0.17-0.34,0.3-0.55,0.4
			C73.56,64.95,73.33,65,73.08,65z M72.06,63.2c0,0.15,0.02,0.3,0.07,0.44c0.05,0.14,0.11,0.27,0.2,0.38
			c0.09,0.11,0.2,0.2,0.32,0.26c0.13,0.07,0.27,0.1,0.43,0.1c0.17,0,0.31-0.03,0.44-0.1c0.13-0.07,0.24-0.16,0.32-0.27
			c0.09-0.11,0.15-0.24,0.2-0.38c0.04-0.14,0.07-0.28,0.07-0.43c0-0.15-0.02-0.3-0.07-0.44c-0.05-0.14-0.12-0.27-0.2-0.38
			c-0.09-0.11-0.2-0.2-0.32-0.26c-0.13-0.07-0.27-0.1-0.43-0.1c-0.17,0-0.32,0.03-0.44,0.1c-0.13,0.07-0.23,0.16-0.32,0.27
			c-0.09,0.11-0.15,0.24-0.2,0.38C72.08,62.91,72.06,63.06,72.06,63.2z"/>
		<path class="st2" d="M82.29,64.97v-3.54h2.37v0.6h-1.68v0.91h1.4v0.56h-1.4v1.47H82.29z"/>
		<g>
			<path class="st2" d="M100.63,64.97v-3.54h1.56c0.16,0,0.31,0.03,0.45,0.1c0.14,0.07,0.26,0.16,0.36,0.27s0.18,0.24,0.23,0.38
				c0.05,0.14,0.08,0.28,0.08,0.43c0,0.15-0.03,0.29-0.08,0.43s-0.13,0.26-0.22,0.36c-0.1,0.1-0.21,0.18-0.34,0.24l0.8,1.33h-0.75
				L102,63.79h-0.69v1.19H100.63z M101.31,63.18h0.86c0.09,0,0.16-0.03,0.23-0.08c0.07-0.05,0.12-0.12,0.16-0.21
				c0.04-0.09,0.06-0.18,0.06-0.29c0-0.11-0.02-0.21-0.07-0.3c-0.05-0.08-0.1-0.15-0.18-0.2c-0.07-0.05-0.15-0.08-0.23-0.08h-0.83
				V63.18z"/>
			<path class="st2" d="M113.33,64.37v0.6h-2.45v-3.54h2.4v0.6h-1.72v0.85h1.49v0.56h-1.49v0.92H113.33z"/>
			<path class="st2" d="M120.54,63.17c0-0.22,0.04-0.43,0.12-0.64s0.19-0.4,0.34-0.57c0.15-0.17,0.33-0.31,0.55-0.41
				c0.22-0.1,0.46-0.15,0.74-0.15c0.32,0,0.6,0.07,0.84,0.21c0.24,0.14,0.41,0.33,0.53,0.56l-0.53,0.36
				c-0.06-0.13-0.14-0.24-0.23-0.32c-0.1-0.08-0.2-0.13-0.31-0.16c-0.11-0.03-0.22-0.05-0.32-0.05c-0.17,0-0.32,0.04-0.45,0.1
				c-0.13,0.07-0.23,0.16-0.32,0.27c-0.09,0.11-0.15,0.24-0.19,0.38c-0.04,0.14-0.06,0.28-0.06,0.42c0,0.16,0.02,0.31,0.07,0.45
				c0.05,0.14,0.12,0.27,0.21,0.38c0.09,0.11,0.2,0.2,0.33,0.26c0.13,0.07,0.27,0.1,0.42,0.1c0.11,0,0.22-0.02,0.33-0.05
				c0.11-0.04,0.22-0.1,0.31-0.18c0.1-0.08,0.17-0.18,0.22-0.31l0.56,0.32c-0.07,0.18-0.18,0.33-0.34,0.45
				c-0.16,0.12-0.33,0.22-0.53,0.28c-0.19,0.06-0.39,0.1-0.58,0.1c-0.25,0-0.48-0.05-0.69-0.16c-0.21-0.1-0.39-0.24-0.54-0.42
				c-0.15-0.17-0.27-0.37-0.35-0.59C120.58,63.62,120.54,63.4,120.54,63.17z"/>
			<path class="st2" d="M131.11,64.97v-3.54h0.68v3.54H131.11z"/>
			<path class="st2" d="M139.49,64.97v-3.54h1.49c0.16,0,0.31,0.03,0.45,0.1c0.14,0.07,0.25,0.16,0.35,0.27s0.18,0.24,0.24,0.38
				c0.06,0.14,0.08,0.28,0.08,0.43c0,0.2-0.05,0.39-0.14,0.57c-0.09,0.18-0.22,0.33-0.38,0.44c-0.16,0.11-0.36,0.17-0.58,0.17h-0.84
				v1.19H139.49z M140.17,63.18h0.8c0.08,0,0.16-0.02,0.22-0.07c0.07-0.05,0.12-0.11,0.16-0.2c0.04-0.09,0.06-0.19,0.06-0.3
				c0-0.12-0.02-0.23-0.07-0.31c-0.04-0.09-0.1-0.15-0.17-0.19c-0.07-0.04-0.15-0.07-0.23-0.07h-0.77V63.18z"/>
			<path class="st2" d="M151.98,64.37v0.6h-2.45v-3.54h2.4v0.6h-1.72v0.85h1.49v0.56h-1.49v0.92H151.98z"/>
			<path class="st2" d="M161.57,62.36c-0.02-0.02-0.07-0.05-0.13-0.09c-0.06-0.04-0.14-0.08-0.22-0.12
				c-0.09-0.04-0.18-0.07-0.29-0.1c-0.1-0.03-0.21-0.04-0.31-0.04c-0.19,0-0.33,0.03-0.42,0.1c-0.09,0.07-0.14,0.17-0.14,0.29
				c0,0.1,0.03,0.17,0.09,0.23c0.06,0.06,0.15,0.1,0.27,0.14c0.12,0.04,0.27,0.08,0.45,0.13c0.23,0.06,0.43,0.12,0.6,0.21
				c0.17,0.08,0.3,0.19,0.39,0.32c0.09,0.13,0.14,0.3,0.14,0.52c0,0.19-0.03,0.35-0.1,0.48c-0.07,0.13-0.16,0.24-0.29,0.33
				c-0.12,0.08-0.26,0.14-0.42,0.18c-0.16,0.04-0.32,0.06-0.5,0.06c-0.18,0-0.35-0.02-0.53-0.06c-0.18-0.04-0.34-0.09-0.51-0.16
				c-0.16-0.07-0.31-0.15-0.45-0.25l0.3-0.59c0.03,0.03,0.08,0.07,0.16,0.12c0.08,0.05,0.17,0.1,0.28,0.14
				c0.11,0.05,0.23,0.09,0.36,0.12c0.13,0.03,0.26,0.05,0.39,0.05c0.19,0,0.33-0.03,0.42-0.09c0.1-0.06,0.14-0.15,0.14-0.27
				c0-0.11-0.04-0.19-0.11-0.25c-0.08-0.06-0.18-0.11-0.32-0.16s-0.3-0.09-0.48-0.15c-0.22-0.06-0.41-0.13-0.56-0.21
				c-0.15-0.08-0.26-0.18-0.33-0.3c-0.07-0.12-0.11-0.27-0.11-0.45c0-0.24,0.06-0.44,0.17-0.61c0.11-0.16,0.27-0.29,0.46-0.37
				c0.2-0.08,0.41-0.13,0.65-0.13c0.17,0,0.32,0.02,0.47,0.06c0.15,0.04,0.29,0.08,0.42,0.14c0.13,0.06,0.24,0.12,0.35,0.19
				L161.57,62.36z"/>
		</g>
	</g>
	<g>
		<path d="M6.45,53.19c0.42,0,0.77-0.03,1.05-0.1c0.27-0.07,0.5-0.15,0.66-0.27c0.17-0.11,0.28-0.25,0.34-0.4
			c0.06-0.16,0.1-0.33,0.1-0.52c0-0.41-0.2-0.74-0.61-1.01c-0.41-0.27-1.11-0.56-2.11-0.87c-0.44-0.14-0.87-0.31-1.3-0.49
			c-0.43-0.19-0.82-0.42-1.17-0.7c-0.35-0.28-0.63-0.62-0.84-1.02c-0.22-0.4-0.33-0.89-0.33-1.46c0-0.58,0.11-1.09,0.35-1.55
			s0.56-0.85,0.98-1.18c0.42-0.32,0.93-0.57,1.53-0.75c0.6-0.17,1.28-0.26,2.03-0.26c0.89,0,1.67,0.09,2.32,0.27
			c0.65,0.18,1.19,0.38,1.61,0.59l-0.86,2.21c-0.37-0.18-0.78-0.34-1.24-0.48c-0.45-0.14-1-0.21-1.64-0.21
			c-0.72,0-1.23,0.09-1.54,0.28S5.3,45.73,5.3,46.11c0,0.23,0.06,0.42,0.17,0.58c0.12,0.16,0.28,0.3,0.49,0.42
			c0.21,0.13,0.45,0.24,0.73,0.34c0.27,0.1,0.58,0.21,0.91,0.31c0.69,0.24,1.29,0.48,1.8,0.71c0.51,0.23,0.94,0.51,1.28,0.82
			c0.34,0.31,0.59,0.68,0.76,1.1c0.17,0.42,0.25,0.93,0.25,1.53c0,1.16-0.44,2.06-1.3,2.7c-0.87,0.64-2.18,0.96-3.93,0.96
			c-0.59,0-1.12-0.03-1.59-0.1c-0.47-0.07-0.89-0.15-1.26-0.24s-0.68-0.2-0.94-0.31C2.4,54.82,2.18,54.72,2,54.63l0.84-2.23
			c0.4,0.2,0.89,0.39,1.47,0.55S5.61,53.19,6.45,53.19z"/>
		<path d="M28.57,49.09c0,1.07-0.17,2-0.51,2.81c-0.34,0.81-0.8,1.49-1.39,2.03c-0.59,0.54-1.29,0.96-2.1,1.23
			c-0.81,0.28-1.69,0.41-2.62,0.41c-0.91,0-1.76-0.14-2.57-0.41c-0.81-0.27-1.51-0.69-2.11-1.23c-0.6-0.54-1.07-1.22-1.42-2.03
			c-0.34-0.81-0.52-1.75-0.52-2.81c0-1.07,0.18-2,0.54-2.81c0.36-0.81,0.84-1.49,1.45-2.04c0.61-0.55,1.31-0.96,2.11-1.24
			c0.8-0.28,1.64-0.41,2.52-0.41c0.91,0,1.76,0.14,2.57,0.41c0.81,0.27,1.51,0.69,2.11,1.24c0.6,0.55,1.07,1.23,1.42,2.04
			C28.39,47.09,28.57,48.03,28.57,49.09z M18.42,49.09c0,0.61,0.08,1.16,0.24,1.65c0.16,0.49,0.39,0.91,0.69,1.27
			c0.3,0.35,0.67,0.63,1.1,0.82c0.43,0.19,0.93,0.29,1.5,0.29c0.55,0,1.05-0.1,1.49-0.29c0.44-0.19,0.81-0.46,1.11-0.82
			c0.3-0.35,0.53-0.77,0.69-1.27c0.16-0.49,0.24-1.04,0.24-1.65s-0.08-1.16-0.24-1.66c-0.16-0.5-0.39-0.92-0.69-1.28
			c-0.3-0.35-0.67-0.62-1.11-0.82c-0.44-0.19-0.94-0.29-1.49-0.29c-0.56,0-1.06,0.1-1.5,0.3c-0.44,0.2-0.8,0.47-1.1,0.83
			c-0.3,0.35-0.53,0.78-0.69,1.28C18.5,47.95,18.42,48.5,18.42,49.09z"/>
		<path d="M36.97,42.73c1.98,0,3.5,0.33,4.57,0.98c1.06,0.65,1.59,1.72,1.59,3.21c0,1.5-0.54,2.58-1.61,3.24
			c-1.07,0.66-2.61,1-4.6,1h-0.94v4.17h-2.99V43.06c0.65-0.12,1.34-0.2,2.07-0.25C35.78,42.76,36.42,42.73,36.97,42.73z
			 M37.16,45.12c-0.22,0-0.43,0.01-0.64,0.02c-0.21,0.01-0.39,0.02-0.55,0.04v3.59h0.94c1.04,0,1.82-0.13,2.34-0.39
			c0.52-0.26,0.79-0.75,0.79-1.47c0-0.35-0.07-0.63-0.2-0.86c-0.13-0.23-0.33-0.41-0.58-0.55c-0.25-0.14-0.55-0.23-0.91-0.29
			C37.99,45.15,37.6,45.12,37.16,45.12z"/>
		<path class="st4" d="M55.27,42.88h2.99v12.45h-2.99v-5.28h-5.03v5.28h-2.99V42.88h2.99v4.76h5.03V42.88z"/>
		<path class="st4" d="M63.25,42.88h2.99v12.45h-2.99V42.88z"/>
		<path d="M80.15,55.33C80,54.89,79.84,54.45,79.67,54c-0.17-0.46-0.34-0.91-0.51-1.36h-5.19c-0.17,0.45-0.34,0.91-0.5,1.37
			c-0.17,0.46-0.33,0.9-0.47,1.33h-3.11c0.5-1.34,0.97-2.58,1.42-3.72c0.45-1.14,0.89-2.21,1.32-3.22s0.85-1.96,1.27-2.87
			c0.42-0.9,0.85-1.79,1.3-2.65h2.84c0.44,0.86,0.87,1.75,1.29,2.65c0.42,0.9,0.85,1.86,1.28,2.87s0.87,2.08,1.32,3.22
			c0.45,1.14,0.93,2.38,1.43,3.72H80.15z M76.55,45.7c-0.07,0.18-0.16,0.43-0.29,0.74c-0.13,0.31-0.27,0.67-0.44,1.08
			c-0.16,0.41-0.35,0.86-0.55,1.35s-0.41,1-0.62,1.54h3.8c-0.2-0.54-0.4-1.06-0.59-1.55c-0.19-0.49-0.37-0.94-0.54-1.35
			c-0.17-0.41-0.32-0.77-0.45-1.08C76.73,46.12,76.63,45.88,76.55,45.7z"/>
		<path d="M99.56,55.58c-2.16,0-3.81-0.56-4.94-1.69c-1.13-1.12-1.7-2.72-1.7-4.8c0-1.03,0.17-1.95,0.52-2.76
			c0.35-0.81,0.82-1.49,1.42-2.05c0.6-0.56,1.32-0.98,2.15-1.27s1.73-0.43,2.71-0.43c0.56,0,1.07,0.04,1.53,0.12
			c0.46,0.08,0.86,0.17,1.21,0.27c0.35,0.1,0.63,0.21,0.86,0.31c0.23,0.11,0.4,0.19,0.5,0.25l-0.86,2.26
			c-0.41-0.2-0.89-0.38-1.43-0.52c-0.54-0.14-1.16-0.22-1.85-0.22c-0.46,0-0.91,0.07-1.35,0.22c-0.44,0.14-0.83,0.37-1.17,0.69
			c-0.34,0.32-0.61,0.73-0.82,1.23c-0.2,0.5-0.31,1.11-0.31,1.83c0,0.58,0.07,1.11,0.2,1.61c0.13,0.5,0.35,0.93,0.65,1.28
			c0.3,0.36,0.69,0.64,1.18,0.85s1.07,0.31,1.76,0.31c0.43,0,0.83-0.02,1.17-0.07c0.35-0.05,0.65-0.11,0.92-0.17
			c0.27-0.07,0.51-0.14,0.71-0.23c0.2-0.08,0.39-0.16,0.56-0.23l0.83,2.25c-0.42,0.24-1.02,0.46-1.78,0.65
			C101.46,55.48,100.57,55.58,99.56,55.58z"/>
		<path d="M112.97,55.42c-0.92,0-1.75-0.18-2.5-0.53c-0.75-0.36-1.39-0.84-1.93-1.45c-0.54-0.61-0.95-1.3-1.25-2.06
			c-0.29-0.76-0.44-1.55-0.44-2.35c0-0.84,0.16-1.64,0.47-2.41c0.31-0.76,0.74-1.44,1.29-2.04c0.55-0.6,1.19-1.07,1.94-1.42
			c0.75-0.35,1.57-0.52,2.46-0.52c0.91,0,1.73,0.18,2.48,0.55c0.75,0.37,1.39,0.86,1.92,1.47c0.53,0.62,0.94,1.3,1.24,2.06
			c0.29,0.76,0.44,1.54,0.44,2.34c0,0.83-0.15,1.62-0.46,2.39c-0.3,0.76-0.73,1.44-1.28,2.04c-0.55,0.6-1.19,1.07-1.94,1.41
			C114.67,55.24,113.85,55.42,112.97,55.42z M109.33,49.03c0,0.54,0.08,1.07,0.25,1.58c0.16,0.51,0.4,0.96,0.71,1.36
			c0.31,0.4,0.7,0.71,1.15,0.94c0.45,0.23,0.97,0.35,1.55,0.35c0.59,0,1.11-0.12,1.57-0.36c0.46-0.24,0.84-0.57,1.15-0.98
			c0.31-0.41,0.54-0.86,0.7-1.37c0.16-0.5,0.24-1.01,0.24-1.52c0-0.54-0.09-1.07-0.26-1.57c-0.17-0.5-0.41-0.95-0.72-1.35
			c-0.31-0.4-0.69-0.71-1.15-0.94c-0.45-0.23-0.96-0.35-1.53-0.35c-0.6,0-1.13,0.12-1.58,0.36c-0.45,0.24-0.83,0.57-1.14,0.97
			c-0.31,0.4-0.54,0.85-0.7,1.35C109.41,48,109.33,48.5,109.33,49.03z"/>
		<path d="M128.09,55.42c-0.92,0-1.75-0.18-2.5-0.53c-0.75-0.36-1.39-0.84-1.93-1.45c-0.54-0.61-0.95-1.3-1.25-2.06
			c-0.29-0.76-0.44-1.55-0.44-2.35c0-0.84,0.16-1.64,0.47-2.41c0.31-0.76,0.74-1.44,1.29-2.04c0.55-0.6,1.19-1.07,1.94-1.42
			c0.75-0.35,1.57-0.52,2.46-0.52c0.91,0,1.73,0.18,2.48,0.55c0.75,0.37,1.39,0.86,1.92,1.47c0.53,0.62,0.94,1.3,1.24,2.06
			c0.29,0.76,0.44,1.54,0.44,2.34c0,0.83-0.15,1.62-0.46,2.39c-0.31,0.76-0.73,1.44-1.28,2.04s-1.2,1.07-1.94,1.41
			C129.79,55.24,128.98,55.42,128.09,55.42z M124.45,49.03c0,0.54,0.08,1.07,0.25,1.58c0.16,0.51,0.4,0.96,0.71,1.36
			c0.31,0.4,0.7,0.71,1.15,0.94c0.45,0.23,0.97,0.35,1.55,0.35c0.59,0,1.11-0.12,1.57-0.36s0.84-0.57,1.15-0.98
			c0.31-0.41,0.54-0.86,0.7-1.37c0.16-0.5,0.24-1.01,0.24-1.52c0-0.54-0.09-1.07-0.26-1.57c-0.17-0.5-0.41-0.95-0.72-1.35
			c-0.31-0.4-0.69-0.71-1.15-0.94c-0.45-0.23-0.96-0.35-1.53-0.35c-0.6,0-1.13,0.12-1.58,0.36c-0.45,0.24-0.83,0.57-1.14,0.97
			c-0.31,0.4-0.54,0.85-0.7,1.35C124.53,48,124.45,48.5,124.45,49.03z"/>
		<path d="M145.93,55.33c-0.27-0.41-0.59-0.84-0.95-1.31c-0.37-0.47-0.76-0.94-1.18-1.42c-0.42-0.48-0.86-0.94-1.33-1.38
			c-0.46-0.44-0.92-0.83-1.38-1.16v5.27h-2.99V42.88h2.99v4.68c0.77-0.76,1.55-1.55,2.34-2.37c0.79-0.83,1.53-1.59,2.2-2.3h3.55
			c-0.9,1.01-1.81,1.98-2.73,2.91c-0.92,0.93-1.88,1.87-2.89,2.81c1.06,0.83,2.09,1.82,3.08,2.96c0.99,1.14,1.94,2.4,2.85,3.77
			H145.93z"/>
		<path d="M156.76,53.19c0.42,0,0.77-0.03,1.05-0.1c0.27-0.07,0.49-0.15,0.66-0.27c0.17-0.11,0.28-0.25,0.35-0.4
			c0.06-0.16,0.1-0.33,0.1-0.52c0-0.41-0.2-0.74-0.61-1.01c-0.41-0.27-1.11-0.56-2.11-0.87c-0.43-0.14-0.87-0.31-1.3-0.49
			c-0.44-0.19-0.83-0.42-1.17-0.7c-0.35-0.28-0.63-0.62-0.84-1.02c-0.22-0.4-0.33-0.89-0.33-1.46c0-0.58,0.12-1.09,0.35-1.55
			c0.23-0.46,0.56-0.85,0.98-1.18c0.42-0.32,0.93-0.57,1.53-0.75c0.6-0.17,1.28-0.26,2.03-0.26c0.9,0,1.67,0.09,2.32,0.27
			c0.65,0.18,1.19,0.38,1.61,0.59l-0.86,2.21c-0.37-0.18-0.78-0.34-1.24-0.48c-0.45-0.14-1-0.21-1.64-0.21
			c-0.72,0-1.23,0.09-1.54,0.28c-0.31,0.19-0.47,0.47-0.47,0.85c0,0.23,0.06,0.42,0.17,0.58c0.12,0.16,0.28,0.3,0.49,0.42
			c0.21,0.13,0.45,0.24,0.73,0.34c0.27,0.1,0.58,0.21,0.91,0.31c0.69,0.24,1.29,0.48,1.8,0.71c0.51,0.23,0.94,0.51,1.28,0.82
			s0.59,0.68,0.76,1.1c0.17,0.42,0.25,0.93,0.25,1.53c0,1.16-0.44,2.06-1.3,2.7c-0.87,0.64-2.18,0.96-3.93,0.96
			c-0.59,0-1.12-0.03-1.59-0.1c-0.47-0.07-0.89-0.15-1.26-0.24c-0.36-0.1-0.68-0.2-0.94-0.31c-0.26-0.11-0.48-0.21-0.66-0.31
			l0.84-2.23c0.4,0.2,0.89,0.39,1.47,0.55C155.2,53.11,155.91,53.19,156.76,53.19z"/>
	</g>
	<g>
		<g>
			<path class="st5" d="M74.76,30.4c-0.1,0-0.15-0.08-0.15-0.24c0-0.14,0.05-0.31,0.15-0.51c0.1-0.2,0.23-0.36,0.39-0.48
				c0.16-0.1,0.32-0.21,0.49-0.32c0.17-0.11,0.33-0.21,0.49-0.29c-0.02-0.04-0.03-0.11-0.03-0.21c0-0.16,0.05-0.24,0.15-0.24
				c0.06,0,0.15,0.07,0.27,0.21c1.56-0.86,3.08-1.5,4.55-1.9v-0.09c0-0.56-0.14-1.08-0.43-1.57c-0.29-0.48-0.65-0.97-1.09-1.48
				c-0.44-0.5-0.88-1.05-1.33-1.66c-0.45-0.6-0.85-1.29-1.2-2.06c-0.35-0.77-0.58-1.68-0.67-2.73c-0.02-0.12-0.03-0.24-0.03-0.36
				c0-0.12,0-0.24,0-0.36c0-1.28,0.29-2.45,0.87-3.49c0.58-1.04,1.33-1.94,2.26-2.69c0.93-0.75,1.93-1.34,3.01-1.76
				c0.86-0.34,1.84-0.51,2.94-0.51c0.4,0,0.78,0.03,1.14,0.09c1.06,0.2,1.8,0.55,2.22,1.05c0.42,0.5,0.63,1,0.63,1.51
				c0,0.38-0.1,0.72-0.3,1.02c-0.2,0.3-0.34,0.45-0.42,0.45c-0.06,0-0.09-0.04-0.09-0.12c0-0.04,0.02-0.11,0.04-0.2
				c0.03-0.09,0.06-0.19,0.08-0.29c0.06-0.16,0.1-0.3,0.12-0.42c0.02-0.12,0.03-0.24,0.03-0.36c0-0.64-0.29-1.12-0.88-1.43
				c-0.59-0.31-1.21-0.47-1.87-0.47c-0.08,0-0.17,0-0.27,0s-0.2,0.01-0.3,0.03c-1.26,0.18-2.45,0.64-3.57,1.38s-2.06,1.71-2.83,2.91
				c-0.77,1.19-1.27,2.56-1.51,4.11c-0.02,0.14-0.03,0.28-0.04,0.42c-0.01,0.14-0.02,0.27-0.02,0.39c0,0.94,0.2,1.8,0.6,2.57
				c0.4,0.77,0.87,1.49,1.42,2.15c0.55,0.66,1.07,1.3,1.57,1.91c0.5,0.61,0.84,1.22,1.02,1.82c0.4-0.08,0.79-0.13,1.17-0.15
				c0.38-0.02,0.75-0.02,1.11,0c0.28,0.04,0.42,0.12,0.42,0.24c0,0.12-0.2,0.18-0.6,0.18c-0.28,0-0.59,0.02-0.93,0.04
				c-0.34,0.03-0.7,0.1-1.08,0.2c0.02,0.06,0.03,0.12,0.03,0.18c0,0.06,0,0.11,0,0.15c0,0.2-0.03,0.41-0.09,0.63
				c-0.26,0.8-0.73,1.39-1.41,1.78c-0.68,0.38-1.37,0.57-2.07,0.57c-0.68,0-1.25-0.14-1.71-0.42c-0.16-0.08-0.31-0.19-0.45-0.33
				c-0.26,0.14-0.52,0.3-0.79,0.48c-0.27,0.18-0.53,0.36-0.79,0.54C74.89,30.37,74.82,30.4,74.76,30.4z M78.45,29.49
				c0.58,0,1.15-0.19,1.71-0.56c0.56-0.37,0.87-0.99,0.93-1.85c-1.32,0.46-2.68,1.1-4.07,1.93C77.33,29.33,77.81,29.49,78.45,29.49z
				"/>
		</g>
		<path class="st5" d="M82,37.06c-9.89,0-17.94-8.09-17.94-18.03C64.05,9.09,72.1,1,82,1c9.89,0,17.94,8.09,17.94,18.03
			C99.94,28.97,91.89,37.06,82,37.06z M82,2c-9.35,0-16.95,7.64-16.95,17.03c0,9.39,7.6,17.03,16.95,17.03s16.95-7.64,16.95-17.03
			C98.95,9.64,91.34,2,82,2z"/>
	</g>
</g>
</svg>
